<mxfile host="Electron" modified="2023-09-28T13:48:31.969Z" agent="Mozilla/5.0 (Windows NT 10.0; Win64; x64) AppleWebKit/537.36 (KHTML, like Gecko) draw.io/21.2.8 Chrome/112.0.5615.165 Electron/24.2.0 Safari/537.36" etag="l9wH0gowQIDc2rNfCofW" version="21.2.8" type="device">
  <diagram name="Página-1" id="uU9AFmhU_C1sMkZeN5U9">
    <mxGraphModel dx="5040" dy="2587" grid="0" gridSize="10" guides="1" tooltips="1" connect="1" arrows="1" fold="1" page="0" pageScale="1" pageWidth="827" pageHeight="1169" math="0" shadow="0">
      <root>
        <mxCell id="0" />
        <mxCell id="1" parent="0" />
        <mxCell id="65deOzmaaW4O3lGtBNO1-4" value="" style="swimlane;startSize=0;fontSize=16;" vertex="1" parent="1">
          <mxGeometry x="-1370" y="-218" width="867" height="1652" as="geometry" />
        </mxCell>
        <mxCell id="65deOzmaaW4O3lGtBNO1-12" value="" style="swimlane;startSize=0;fontSize=16;" vertex="1" parent="65deOzmaaW4O3lGtBNO1-4">
          <mxGeometry x="211" y="34" width="414" height="274" as="geometry" />
        </mxCell>
        <mxCell id="65deOzmaaW4O3lGtBNO1-13" value="Administração" style="text;html=1;align=center;verticalAlign=middle;resizable=0;points=[];autosize=1;strokeColor=none;fillColor=none;fontSize=16;" vertex="1" parent="65deOzmaaW4O3lGtBNO1-12">
          <mxGeometry x="5" y="14" width="119" height="31" as="geometry" />
        </mxCell>
        <mxCell id="65deOzmaaW4O3lGtBNO1-11" value="Configurar biblioteca" style="ellipse;whiteSpace=wrap;html=1;fontSize=16;" vertex="1" parent="65deOzmaaW4O3lGtBNO1-12">
          <mxGeometry x="38" y="154" width="120" height="80" as="geometry" />
        </mxCell>
        <mxCell id="65deOzmaaW4O3lGtBNO1-6" value="Manter usuário" style="ellipse;whiteSpace=wrap;html=1;fontSize=16;" vertex="1" parent="65deOzmaaW4O3lGtBNO1-12">
          <mxGeometry x="38" y="55" width="120" height="80" as="geometry" />
        </mxCell>
        <mxCell id="65deOzmaaW4O3lGtBNO1-7" value="Vincular permissões" style="ellipse;whiteSpace=wrap;html=1;fontSize=16;" vertex="1" parent="65deOzmaaW4O3lGtBNO1-12">
          <mxGeometry x="260" y="55" width="120" height="80" as="geometry" />
        </mxCell>
        <mxCell id="65deOzmaaW4O3lGtBNO1-9" style="edgeStyle=none;curved=1;rounded=0;orthogonalLoop=1;jettySize=auto;html=1;entryX=1;entryY=0.5;entryDx=0;entryDy=0;fontSize=12;startSize=8;endSize=8;" edge="1" parent="65deOzmaaW4O3lGtBNO1-12" source="65deOzmaaW4O3lGtBNO1-7" target="65deOzmaaW4O3lGtBNO1-6">
          <mxGeometry relative="1" as="geometry" />
        </mxCell>
        <mxCell id="65deOzmaaW4O3lGtBNO1-10" value="&amp;lt;&amp;lt;extends&amp;gt;&amp;gt;" style="text;html=1;align=center;verticalAlign=middle;resizable=0;points=[];autosize=1;strokeColor=none;fillColor=none;fontSize=16;" vertex="1" parent="65deOzmaaW4O3lGtBNO1-12">
          <mxGeometry x="158" y="55" width="111" height="31" as="geometry" />
        </mxCell>
        <mxCell id="65deOzmaaW4O3lGtBNO1-33" value="" style="swimlane;startSize=0;fontSize=16;" vertex="1" parent="65deOzmaaW4O3lGtBNO1-4">
          <mxGeometry x="211" y="318" width="422" height="355" as="geometry" />
        </mxCell>
        <mxCell id="65deOzmaaW4O3lGtBNO1-21" value="Manter autores" style="ellipse;whiteSpace=wrap;html=1;fontSize=16;" vertex="1" parent="65deOzmaaW4O3lGtBNO1-33">
          <mxGeometry x="81" y="52" width="120" height="80" as="geometry" />
        </mxCell>
        <mxCell id="65deOzmaaW4O3lGtBNO1-23" value="Manter editoras" style="ellipse;whiteSpace=wrap;html=1;fontSize=16;" vertex="1" parent="65deOzmaaW4O3lGtBNO1-33">
          <mxGeometry x="81" y="252" width="120" height="80" as="geometry" />
        </mxCell>
        <mxCell id="65deOzmaaW4O3lGtBNO1-34" value="Autoridades" style="text;html=1;align=center;verticalAlign=middle;resizable=0;points=[];autosize=1;strokeColor=none;fillColor=none;fontSize=16;" vertex="1" parent="65deOzmaaW4O3lGtBNO1-33">
          <mxGeometry x="13" y="15" width="103" height="31" as="geometry" />
        </mxCell>
        <mxCell id="65deOzmaaW4O3lGtBNO1-22" value="Manter categorias" style="ellipse;whiteSpace=wrap;html=1;fontSize=16;" vertex="1" parent="65deOzmaaW4O3lGtBNO1-33">
          <mxGeometry x="81" y="154" width="120" height="80" as="geometry" />
        </mxCell>
        <mxCell id="65deOzmaaW4O3lGtBNO1-56" value="" style="swimlane;startSize=0;fontSize=16;" vertex="1" parent="65deOzmaaW4O3lGtBNO1-4">
          <mxGeometry x="211" y="681" width="425" height="334" as="geometry">
            <mxRectangle x="211" y="681" width="50" height="44" as="alternateBounds" />
          </mxGeometry>
        </mxCell>
        <mxCell id="65deOzmaaW4O3lGtBNO1-47" value="&amp;lt;&amp;lt;depends&amp;gt;&amp;gt;" style="text;html=1;align=center;verticalAlign=middle;resizable=0;points=[];autosize=1;strokeColor=none;fillColor=none;fontSize=16;" vertex="1" parent="65deOzmaaW4O3lGtBNO1-56">
          <mxGeometry x="301" y="151.5" width="117" height="31" as="geometry" />
        </mxCell>
        <mxCell id="65deOzmaaW4O3lGtBNO1-46" style="edgeStyle=none;curved=1;rounded=0;orthogonalLoop=1;jettySize=auto;html=1;fontSize=12;startSize=8;endSize=8;entryX=0.5;entryY=0;entryDx=0;entryDy=0;" edge="1" parent="65deOzmaaW4O3lGtBNO1-56" source="65deOzmaaW4O3lGtBNO1-43" target="65deOzmaaW4O3lGtBNO1-42">
          <mxGeometry relative="1" as="geometry" />
        </mxCell>
        <mxCell id="65deOzmaaW4O3lGtBNO1-43" value="Vincular exemplares" style="ellipse;whiteSpace=wrap;html=1;fontSize=16;" vertex="1" parent="65deOzmaaW4O3lGtBNO1-56">
          <mxGeometry x="234" y="44" width="120" height="80" as="geometry" />
        </mxCell>
        <mxCell id="65deOzmaaW4O3lGtBNO1-45" value="&amp;lt;&amp;lt;extends&amp;gt;&amp;gt;" style="text;html=1;align=center;verticalAlign=middle;resizable=0;points=[];autosize=1;strokeColor=none;fillColor=none;fontSize=16;" vertex="1" parent="65deOzmaaW4O3lGtBNO1-56">
          <mxGeometry x="137" y="44" width="111" height="31" as="geometry" />
        </mxCell>
        <mxCell id="65deOzmaaW4O3lGtBNO1-42" value="Manter exemplares" style="ellipse;whiteSpace=wrap;html=1;fontSize=16;" vertex="1" parent="65deOzmaaW4O3lGtBNO1-56">
          <mxGeometry x="234" y="228" width="120" height="80" as="geometry" />
        </mxCell>
        <mxCell id="65deOzmaaW4O3lGtBNO1-41" value="Manter obras" style="ellipse;whiteSpace=wrap;html=1;fontSize=16;" vertex="1" parent="65deOzmaaW4O3lGtBNO1-56">
          <mxGeometry x="12" y="44" width="120" height="80" as="geometry" />
        </mxCell>
        <mxCell id="65deOzmaaW4O3lGtBNO1-44" value="" style="edgeStyle=none;curved=1;rounded=0;orthogonalLoop=1;jettySize=auto;html=1;fontSize=12;startSize=8;endSize=8;" edge="1" parent="65deOzmaaW4O3lGtBNO1-56" source="65deOzmaaW4O3lGtBNO1-43" target="65deOzmaaW4O3lGtBNO1-41">
          <mxGeometry relative="1" as="geometry" />
        </mxCell>
        <mxCell id="65deOzmaaW4O3lGtBNO1-57" value="Catalogação" style="text;html=1;align=center;verticalAlign=middle;resizable=0;points=[];autosize=1;strokeColor=none;fillColor=none;fontSize=16;" vertex="1" parent="65deOzmaaW4O3lGtBNO1-56">
          <mxGeometry x="24" y="11" width="108" height="31" as="geometry" />
        </mxCell>
        <mxCell id="65deOzmaaW4O3lGtBNO1-59" value="Manter leitor" style="ellipse;whiteSpace=wrap;html=1;fontSize=16;" vertex="1" parent="65deOzmaaW4O3lGtBNO1-4">
          <mxGeometry x="375" y="1066" width="120" height="80" as="geometry" />
        </mxCell>
        <mxCell id="65deOzmaaW4O3lGtBNO1-67" style="edgeStyle=none;curved=1;rounded=0;orthogonalLoop=1;jettySize=auto;html=1;fontSize=12;startSize=8;endSize=8;" edge="1" parent="65deOzmaaW4O3lGtBNO1-4" source="65deOzmaaW4O3lGtBNO1-60">
          <mxGeometry relative="1" as="geometry">
            <mxPoint x="435" y="1145" as="targetPoint" />
          </mxGeometry>
        </mxCell>
        <mxCell id="65deOzmaaW4O3lGtBNO1-70" style="edgeStyle=none;curved=1;rounded=0;orthogonalLoop=1;jettySize=auto;html=1;entryX=0;entryY=0.5;entryDx=0;entryDy=0;fontSize=12;startSize=8;endSize=8;" edge="1" parent="65deOzmaaW4O3lGtBNO1-4" source="65deOzmaaW4O3lGtBNO1-60" target="65deOzmaaW4O3lGtBNO1-64">
          <mxGeometry relative="1" as="geometry" />
        </mxCell>
        <mxCell id="65deOzmaaW4O3lGtBNO1-78" style="edgeStyle=none;curved=1;rounded=0;orthogonalLoop=1;jettySize=auto;html=1;entryX=-0.029;entryY=0.666;entryDx=0;entryDy=0;entryPerimeter=0;fontSize=12;startSize=8;endSize=8;" edge="1" parent="65deOzmaaW4O3lGtBNO1-4" source="65deOzmaaW4O3lGtBNO1-60" target="65deOzmaaW4O3lGtBNO1-62">
          <mxGeometry relative="1" as="geometry">
            <Array as="points">
              <mxPoint x="327" y="1239" />
              <mxPoint x="331" y="1292" />
              <mxPoint x="324" y="1537" />
              <mxPoint x="347" y="1553" />
            </Array>
          </mxGeometry>
        </mxCell>
        <mxCell id="65deOzmaaW4O3lGtBNO1-60" value="Manter empréstimo" style="ellipse;whiteSpace=wrap;html=1;fontSize=16;" vertex="1" parent="65deOzmaaW4O3lGtBNO1-4">
          <mxGeometry x="375" y="1201" width="120" height="80" as="geometry" />
        </mxCell>
        <mxCell id="65deOzmaaW4O3lGtBNO1-65" style="edgeStyle=none;curved=1;rounded=0;orthogonalLoop=1;jettySize=auto;html=1;fontSize=12;startSize=8;endSize=8;" edge="1" parent="65deOzmaaW4O3lGtBNO1-4" source="65deOzmaaW4O3lGtBNO1-61" target="65deOzmaaW4O3lGtBNO1-60">
          <mxGeometry relative="1" as="geometry" />
        </mxCell>
        <mxCell id="65deOzmaaW4O3lGtBNO1-69" style="edgeStyle=none;curved=1;rounded=0;orthogonalLoop=1;jettySize=auto;html=1;entryX=0.5;entryY=1;entryDx=0;entryDy=0;fontSize=12;startSize=8;endSize=8;" edge="1" parent="65deOzmaaW4O3lGtBNO1-4" source="65deOzmaaW4O3lGtBNO1-61" target="65deOzmaaW4O3lGtBNO1-64">
          <mxGeometry relative="1" as="geometry" />
        </mxCell>
        <mxCell id="65deOzmaaW4O3lGtBNO1-61" value="Renovação de empréstimo" style="ellipse;whiteSpace=wrap;html=1;fontSize=16;" vertex="1" parent="65deOzmaaW4O3lGtBNO1-4">
          <mxGeometry x="375" y="1365" width="120" height="80" as="geometry" />
        </mxCell>
        <mxCell id="65deOzmaaW4O3lGtBNO1-76" style="edgeStyle=none;curved=1;rounded=0;orthogonalLoop=1;jettySize=auto;html=1;fontSize=12;startSize=8;endSize=8;" edge="1" parent="65deOzmaaW4O3lGtBNO1-4" source="65deOzmaaW4O3lGtBNO1-63" target="65deOzmaaW4O3lGtBNO1-62">
          <mxGeometry relative="1" as="geometry" />
        </mxCell>
        <mxCell id="65deOzmaaW4O3lGtBNO1-63" value="Notificar disponibilidade" style="ellipse;whiteSpace=wrap;html=1;fontSize=16;" vertex="1" parent="65deOzmaaW4O3lGtBNO1-4">
          <mxGeometry x="624" y="1495" width="120" height="80" as="geometry" />
        </mxCell>
        <mxCell id="65deOzmaaW4O3lGtBNO1-71" style="edgeStyle=none;curved=1;rounded=0;orthogonalLoop=1;jettySize=auto;html=1;entryX=1;entryY=0.5;entryDx=0;entryDy=0;fontSize=12;startSize=8;endSize=8;" edge="1" parent="65deOzmaaW4O3lGtBNO1-4" source="65deOzmaaW4O3lGtBNO1-64">
          <mxGeometry relative="1" as="geometry">
            <mxPoint x="494.9999999999932" y="1105" as="targetPoint" />
          </mxGeometry>
        </mxCell>
        <mxCell id="65deOzmaaW4O3lGtBNO1-64" value="Quitar dívidas do leitor" style="ellipse;whiteSpace=wrap;html=1;fontSize=16;" vertex="1" parent="65deOzmaaW4O3lGtBNO1-4">
          <mxGeometry x="621" y="1205" width="120" height="80" as="geometry" />
        </mxCell>
        <mxCell id="65deOzmaaW4O3lGtBNO1-66" value="&amp;lt;&amp;lt;depends&amp;gt;&amp;gt;" style="text;html=1;align=center;verticalAlign=middle;resizable=0;points=[];autosize=1;strokeColor=none;fillColor=none;fontSize=16;" vertex="1" parent="65deOzmaaW4O3lGtBNO1-4">
          <mxGeometry x="430" y="1305" width="117" height="31" as="geometry" />
        </mxCell>
        <mxCell id="65deOzmaaW4O3lGtBNO1-68" value="&amp;lt;&amp;lt;depends&amp;gt;&amp;gt;" style="text;html=1;align=center;verticalAlign=middle;resizable=0;points=[];autosize=1;strokeColor=none;fillColor=none;fontSize=16;" vertex="1" parent="65deOzmaaW4O3lGtBNO1-4">
          <mxGeometry x="432" y="1161" width="117" height="31" as="geometry" />
        </mxCell>
        <mxCell id="65deOzmaaW4O3lGtBNO1-73" value="&amp;lt;&amp;lt;depends&amp;gt;&amp;gt;" style="text;html=1;align=center;verticalAlign=middle;resizable=0;points=[];autosize=1;strokeColor=none;fillColor=none;fontSize=16;" vertex="1" parent="65deOzmaaW4O3lGtBNO1-4">
          <mxGeometry x="538" y="1347" width="117" height="31" as="geometry" />
        </mxCell>
        <mxCell id="65deOzmaaW4O3lGtBNO1-77" value="&amp;lt;&amp;lt;depends&amp;gt;&amp;gt;" style="text;html=1;align=center;verticalAlign=middle;resizable=0;points=[];autosize=1;strokeColor=none;fillColor=none;fontSize=16;" vertex="1" parent="65deOzmaaW4O3lGtBNO1-4">
          <mxGeometry x="510" y="1495" width="117" height="31" as="geometry" />
        </mxCell>
        <mxCell id="65deOzmaaW4O3lGtBNO1-79" value="&amp;lt;&amp;lt;extends&amp;gt;&amp;gt;" style="text;html=1;align=center;verticalAlign=middle;resizable=0;points=[];autosize=1;strokeColor=none;fillColor=none;fontSize=16;" vertex="1" parent="65deOzmaaW4O3lGtBNO1-4">
          <mxGeometry x="211" y="1395" width="111" height="31" as="geometry" />
        </mxCell>
        <mxCell id="65deOzmaaW4O3lGtBNO1-96" value="" style="swimlane;startSize=0;fontSize=16;" vertex="1" parent="65deOzmaaW4O3lGtBNO1-4">
          <mxGeometry x="211" y="1030" width="588" height="577" as="geometry">
            <mxRectangle x="211" y="1158" width="50" height="44" as="alternateBounds" />
          </mxGeometry>
        </mxCell>
        <mxCell id="65deOzmaaW4O3lGtBNO1-97" value="Circulação" style="text;html=1;align=center;verticalAlign=middle;resizable=0;points=[];autosize=1;strokeColor=none;fillColor=none;fontSize=16;" vertex="1" parent="65deOzmaaW4O3lGtBNO1-96">
          <mxGeometry x="17" y="21" width="94" height="31" as="geometry" />
        </mxCell>
        <mxCell id="65deOzmaaW4O3lGtBNO1-62" value="Manter reservas" style="ellipse;whiteSpace=wrap;html=1;fontSize=16;" vertex="1" parent="65deOzmaaW4O3lGtBNO1-96">
          <mxGeometry x="164" y="462" width="120" height="80" as="geometry" />
        </mxCell>
        <mxCell id="65deOzmaaW4O3lGtBNO1-75" value="&amp;lt;&amp;lt;depends&amp;gt;&amp;gt;" style="text;html=1;align=center;verticalAlign=middle;resizable=0;points=[];autosize=1;strokeColor=none;fillColor=none;fontSize=16;" vertex="1" parent="65deOzmaaW4O3lGtBNO1-96">
          <mxGeometry x="368" y="106" width="117" height="31" as="geometry" />
        </mxCell>
        <mxCell id="65deOzmaaW4O3lGtBNO1-72" value="&amp;lt;&amp;lt;depends&amp;gt;&amp;gt;" style="text;html=1;align=center;verticalAlign=middle;resizable=0;points=[];autosize=1;strokeColor=none;fillColor=none;fontSize=16;" vertex="1" parent="65deOzmaaW4O3lGtBNO1-96">
          <mxGeometry x="284" y="185" width="117" height="31" as="geometry" />
        </mxCell>
        <mxCell id="65deOzmaaW4O3lGtBNO1-5" value="&lt;b&gt;&lt;font style=&quot;font-size: 23px;&quot;&gt;Bibliotech&lt;/font&gt;&lt;/b&gt;" style="text;html=1;align=center;verticalAlign=middle;resizable=0;points=[];autosize=1;strokeColor=none;fillColor=none;fontSize=16;" vertex="1" parent="65deOzmaaW4O3lGtBNO1-4">
          <mxGeometry x="21" y="38" width="129" height="40" as="geometry" />
        </mxCell>
        <mxCell id="65deOzmaaW4O3lGtBNO1-86" style="edgeStyle=none;curved=1;rounded=0;orthogonalLoop=1;jettySize=auto;html=1;entryX=0.03;entryY=0.382;entryDx=0;entryDy=0;entryPerimeter=0;fontSize=12;startSize=8;endSize=8;" edge="1" parent="1" source="65deOzmaaW4O3lGtBNO1-1" target="65deOzmaaW4O3lGtBNO1-6">
          <mxGeometry relative="1" as="geometry" />
        </mxCell>
        <mxCell id="65deOzmaaW4O3lGtBNO1-87" style="edgeStyle=none;curved=1;rounded=0;orthogonalLoop=1;jettySize=auto;html=1;entryX=0;entryY=0.5;entryDx=0;entryDy=0;fontSize=12;startSize=8;endSize=8;" edge="1" parent="1" source="65deOzmaaW4O3lGtBNO1-1" target="65deOzmaaW4O3lGtBNO1-11">
          <mxGeometry relative="1" as="geometry" />
        </mxCell>
        <mxCell id="65deOzmaaW4O3lGtBNO1-88" style="edgeStyle=none;curved=1;rounded=0;orthogonalLoop=1;jettySize=auto;html=1;entryX=0;entryY=0.5;entryDx=0;entryDy=0;fontSize=12;startSize=8;endSize=8;" edge="1" parent="1" source="65deOzmaaW4O3lGtBNO1-1" target="65deOzmaaW4O3lGtBNO1-21">
          <mxGeometry relative="1" as="geometry" />
        </mxCell>
        <mxCell id="65deOzmaaW4O3lGtBNO1-89" style="edgeStyle=none;curved=1;rounded=0;orthogonalLoop=1;jettySize=auto;html=1;entryX=0;entryY=0.5;entryDx=0;entryDy=0;fontSize=12;startSize=8;endSize=8;" edge="1" parent="1" source="65deOzmaaW4O3lGtBNO1-1" target="65deOzmaaW4O3lGtBNO1-22">
          <mxGeometry relative="1" as="geometry" />
        </mxCell>
        <mxCell id="65deOzmaaW4O3lGtBNO1-90" style="edgeStyle=none;curved=1;rounded=0;orthogonalLoop=1;jettySize=auto;html=1;entryX=0;entryY=0.5;entryDx=0;entryDy=0;fontSize=12;startSize=8;endSize=8;" edge="1" parent="1" source="65deOzmaaW4O3lGtBNO1-1" target="65deOzmaaW4O3lGtBNO1-23">
          <mxGeometry relative="1" as="geometry" />
        </mxCell>
        <mxCell id="65deOzmaaW4O3lGtBNO1-91" style="edgeStyle=none;curved=1;rounded=0;orthogonalLoop=1;jettySize=auto;html=1;entryX=0;entryY=0.25;entryDx=0;entryDy=0;fontSize=12;startSize=8;endSize=8;" edge="1" parent="1" source="65deOzmaaW4O3lGtBNO1-1" target="65deOzmaaW4O3lGtBNO1-56">
          <mxGeometry relative="1" as="geometry" />
        </mxCell>
        <mxCell id="65deOzmaaW4O3lGtBNO1-92" style="edgeStyle=none;curved=1;rounded=0;orthogonalLoop=1;jettySize=auto;html=1;entryX=0.027;entryY=0.654;entryDx=0;entryDy=0;entryPerimeter=0;fontSize=12;startSize=8;endSize=8;" edge="1" parent="1" source="65deOzmaaW4O3lGtBNO1-1" target="65deOzmaaW4O3lGtBNO1-59">
          <mxGeometry relative="1" as="geometry" />
        </mxCell>
        <mxCell id="65deOzmaaW4O3lGtBNO1-93" style="edgeStyle=none;curved=1;rounded=0;orthogonalLoop=1;jettySize=auto;html=1;entryX=0;entryY=0.5;entryDx=0;entryDy=0;fontSize=12;startSize=8;endSize=8;" edge="1" parent="1" source="65deOzmaaW4O3lGtBNO1-1" target="65deOzmaaW4O3lGtBNO1-60">
          <mxGeometry relative="1" as="geometry" />
        </mxCell>
        <mxCell id="65deOzmaaW4O3lGtBNO1-94" style="edgeStyle=none;curved=1;rounded=0;orthogonalLoop=1;jettySize=auto;html=1;entryX=0;entryY=0.5;entryDx=0;entryDy=0;fontSize=12;startSize=8;endSize=8;" edge="1" parent="1" source="65deOzmaaW4O3lGtBNO1-1" target="65deOzmaaW4O3lGtBNO1-61">
          <mxGeometry relative="1" as="geometry" />
        </mxCell>
        <mxCell id="65deOzmaaW4O3lGtBNO1-95" style="edgeStyle=none;curved=1;rounded=0;orthogonalLoop=1;jettySize=auto;html=1;entryX=0;entryY=0.5;entryDx=0;entryDy=0;fontSize=12;startSize=8;endSize=8;" edge="1" parent="1" source="65deOzmaaW4O3lGtBNO1-1" target="65deOzmaaW4O3lGtBNO1-62">
          <mxGeometry relative="1" as="geometry" />
        </mxCell>
        <mxCell id="65deOzmaaW4O3lGtBNO1-1" value="Usuário" style="shape=umlActor;verticalLabelPosition=bottom;verticalAlign=top;html=1;outlineConnect=0;fontSize=16;" vertex="1" parent="1">
          <mxGeometry x="-1463" y="560" width="60" height="109" as="geometry" />
        </mxCell>
      </root>
    </mxGraphModel>
  </diagram>
</mxfile>
